<svg width="28" height="28" viewBox="0 0 28 28" fill="none" xmlns="http://www.w3.org/2000/svg">
<path d="M13.9999 27.4842C21.4418 27.4842 27.5115 21.4377 27.5115 13.9726C27.5115 6.50745 21.4418 0.460938 13.9999 0.460938C6.55805 0.460938 0.488281 6.5307 0.488281 13.9726C0.488281 21.4144 6.55805 27.4842 13.9999 27.4842ZM13.9999 2.36791C20.3953 2.36791 25.6046 7.57722 25.6046 13.9726C25.6046 20.3679 20.3953 25.5772 13.9999 25.5772C7.60456 25.5772 2.39526 20.3679 2.39526 13.9726C2.39526 7.57722 7.60456 2.36791 13.9999 2.36791Z" fill="#F59D14"/>
<path d="M10.8836 20.7166C11.0696 20.9026 11.3022 20.9956 11.558 20.9956C11.7905 20.9956 12.0464 20.9026 12.2324 20.7166L18.3719 14.577C18.558 14.391 18.651 14.1584 18.651 13.9026C18.651 13.6468 18.558 13.4142 18.3719 13.2282L12.2324 7.08864C11.8603 6.71655 11.2557 6.71655 10.8836 7.08864C10.5115 7.46073 10.5115 8.06539 10.8836 8.43748L16.3487 13.9026L10.8836 19.3677C10.5115 19.7398 10.5115 20.3445 10.8836 20.7166Z" fill="#F59D14"/>
</svg>
