<svg width="75" height="94" viewBox="0 0 75 94" fill="none" xmlns="http://www.w3.org/2000/svg">
<path d="M60.9994 29.6001H18.1152C10.3832 29.6001 4.11523 35.8681 4.11523 43.6001V75.579C4.11523 83.311 10.3832 89.579 18.1152 89.579H60.9994C68.7314 89.579 74.9994 83.311 74.9994 75.5791V43.6001C74.9994 35.8681 68.7314 29.6001 60.9994 29.6001Z" fill="url(#paint0_linear_2009_1248)"/>
<path d="M21.6367 11.262H7C3.68629 11.262 1 13.9483 1 17.262V87.4738C1 90.7875 3.68629 93.4738 7 93.4738H62.5713C65.885 93.4738 68.5713 90.7875 68.5713 87.4737V17.262C68.5713 13.9483 65.885 11.262 62.5713 11.262H47.5694" stroke="#212E58" stroke-width="0.43"/>
<rect x="23.7384" y="0.215" width="22.0938" height="20.4045" rx="5.785" stroke="#212E58" stroke-width="0.43"/>
<rect x="26.5548" y="2.46744" width="16.4628" height="15.8997" rx="5.785" stroke="#212E58" stroke-width="0.43"/>
<rect x="7.40836" y="79.0483" width="54.7533" height="8.01642" rx="4.00821" stroke="#212E58" stroke-width="0.43"/>
<rect x="7.40836" y="32.3114" width="54.7533" height="36.1711" rx="5.785" stroke="#212E58" stroke-width="0.43"/>
<path d="M21.9237 15.7666H21.8348C19.3469 15.7666 17.3301 17.7835 17.3301 20.2714V20.2714C17.3301 22.7593 19.3469 24.7761 21.8348 24.7761H47.7372C50.2251 24.7761 52.2419 22.7593 52.2419 20.2714V20.1765C52.2419 17.741 50.2675 15.7666 47.832 15.7666V15.7666" stroke="#212E58" stroke-width="0.43"/>
<path d="M42.4534 43.0767C42.4534 47.4821 39.132 51.0266 35.0666 51.0266C31.0012 51.0266 27.6798 47.4821 27.6798 43.0767C27.6798 38.6714 31.0012 35.1269 35.0666 35.1269C39.132 35.1269 42.4534 38.6714 42.4534 43.0767Z" stroke="#212E58" stroke-width="0.43"/>
<path d="M21.834 68.6976H22.3812M22.3812 68.6976H47.7363V60.0218C46.8693 56.2216 45.504 54.9638 41.7168 54.0571H28.4008C24.3743 54.9636 23.0008 56.2217 22.3812 60.0218V68.6976Z" stroke="#212E58" stroke-width="0.43"/>
<defs>
<linearGradient id="paint0_linear_2009_1248" x1="19.2755" y1="39.9872" x2="42.2583" y2="94.5765" gradientUnits="userSpaceOnUse">
<stop stop-color="#E2F2FA"/>
<stop offset="1" stop-color="#7FCEEE"/>
</linearGradient>
</defs>
</svg>
