<svg width="99" height="95" viewBox="0 0 99 95" fill="none" xmlns="http://www.w3.org/2000/svg">
<path d="M89.2087 30.9302H27.6738C22.7033 30.9302 18.6738 34.9596 18.6738 39.9302V85.9999C18.6738 90.9705 22.7033 94.9999 27.6738 94.9999H89.2087C94.1793 94.9999 98.2087 90.9705 98.2087 85.9999V39.9302C98.2087 34.9596 94.1793 30.9302 89.2087 30.9302Z" fill="url(#paint0_linear_2009_1310)"/>
<path d="M16.7305 32.7738L19.9665 36.3556L26.7982 27.5464" stroke="#212E58" stroke-width="0.43"/>
<path d="M33.5098 32.7738L36.7458 36.3556L43.5775 27.5464" stroke="#212E58" stroke-width="0.43"/>
<path d="M49.4512 69.6889L52.5524 73.2707L59.0994 64.4614" stroke="#212E58" stroke-width="0.43"/>
<path d="M49.8711 51.2314L52.9723 54.8131L59.5193 46.0039" stroke="#212E58" stroke-width="0.43"/>
<path d="M22.1478 7.73267H10C5.02944 7.73267 1 11.7621 1 16.7327V79.3722C1 84.3428 5.02944 88.3722 10 88.3722H83.6861C88.6566 88.3722 92.6861 84.3428 92.6861 79.3722V16.7327C92.6861 11.7621 88.6566 7.73267 83.686 7.73267H70.7196M27.4689 7.73267H36.6102M65.535 7.73267H56.3937M41.9313 7.73267H46.4337H51.0726" stroke="#212E58" stroke-width="0.43"/>
<path d="M7.84195 27.6743C7.84195 22.2702 12.2228 17.8893 17.627 17.8893H76.0572C81.4613 17.8893 85.8422 22.2702 85.8422 27.6743V72.8487C85.8422 78.2528 81.4613 82.6337 76.0572 82.6337H17.627C12.2229 82.6337 7.84195 78.2528 7.84195 72.8487V27.6743Z" stroke="#212E58" stroke-width="0.43"/>
<rect x="23.3088" y="0.215" width="2.88395" height="13.9305" rx="1.44198" stroke="#212E58" stroke-width="0.43"/>
<rect x="66.3888" y="0.215" width="2.88395" height="13.9305" rx="1.44198" stroke="#212E58" stroke-width="0.43"/>
<rect x="37.6681" y="0.215" width="2.88395" height="13.9305" rx="1.44198" stroke="#212E58" stroke-width="0.43"/>
<rect x="52.0295" y="0.215" width="2.88395" height="13.9305" rx="1.44198" stroke="#212E58" stroke-width="0.43"/>
<rect x="15.213" y="24.9106" width="13.5529" height="13.5529" rx="1.75635" stroke="#212E58" stroke-width="0.43"/>
<rect x="15.213" y="43.404" width="13.5529" height="13.5529" rx="1.75635" stroke="#212E58" stroke-width="0.43"/>
<rect x="15.213" y="61.8976" width="13.5529" height="13.5529" rx="1.75635" stroke="#212E58" stroke-width="0.43"/>
<rect x="31.4513" y="24.9106" width="13.5529" height="13.5529" rx="1.75635" stroke="#212E58" stroke-width="0.43"/>
<rect x="31.4513" y="43.4042" width="13.5529" height="13.5529" rx="1.75635" stroke="#212E58" stroke-width="0.43"/>
<rect x="31.4513" y="61.8976" width="13.5529" height="13.5529" rx="1.75635" stroke="#212E58" stroke-width="0.43"/>
<rect x="47.6896" y="24.9106" width="13.5529" height="13.5529" rx="1.75635" stroke="#212E58" stroke-width="0.43"/>
<rect x="47.6896" y="43.4042" width="13.5529" height="13.5529" rx="1.75635" stroke="#212E58" stroke-width="0.43"/>
<rect x="47.6896" y="61.8976" width="13.5529" height="13.5529" rx="1.75635" stroke="#212E58" stroke-width="0.43"/>
<rect x="63.9279" y="24.9106" width="13.5529" height="13.5529" rx="1.75635" stroke="#212E58" stroke-width="0.43"/>
<rect x="63.9279" y="43.4042" width="13.5529" height="13.5529" rx="1.75635" stroke="#212E58" stroke-width="0.43"/>
<rect x="63.9279" y="61.8976" width="13.5529" height="13.5529" rx="1.75635" stroke="#212E58" stroke-width="0.43"/>
<defs>
<linearGradient id="paint0_linear_2009_1310" x1="35.6843" y1="42.0257" x2="59.3909" y2="101.172" gradientUnits="userSpaceOnUse">
<stop stop-color="#E2F2FA"/>
<stop offset="1" stop-color="#7FCEEE"/>
</linearGradient>
</defs>
</svg>
