<svg width="94" height="95" viewBox="0 0 94 95" fill="none" xmlns="http://www.w3.org/2000/svg">
<path d="M93.2577 23.5321C93.2577 36.5206 83.5108 47.0642 71.4687 47.0642C59.4423 47.0642 49.6797 36.5206 49.6797 23.5321C49.6797 10.5436 59.4266 0 71.4687 0C83.5108 0 93.2577 10.5267 93.2577 23.5321Z" fill="url(#paint0_linear_2009_1270)"/>
<path d="M51.2116 69.0336C51.2116 83.3658 39.7574 95.0001 25.6058 95.0001C11.4727 95.0001 0 83.3658 0 69.0336C0 54.7015 11.4543 43.0671 25.6058 43.0671C39.7574 43.0671 51.2116 54.6828 51.2116 69.0336Z" fill="url(#paint1_linear_2009_1270)"/>
<path d="M70.0392 29.1917V40.6567H67.6762C67.6762 40.6567 66.1715 42.0731 64.9631 42.4946C63.4141 43.0348 62.2547 43.1758 60.7622 42.4946C60.1513 42.2157 59.7066 42.0049 59.1869 41.494C58.335 40.6566 57.9575 39.9093 57.8741 38.7312C57.7939 37.5979 58.6618 35.9306 58.6618 35.9306M58.6618 35.9306C58.6618 35.9306 56.2619 35.4518 54.986 34.6179C54.5243 34.3161 54.1187 34.0158 53.7607 33.7011C52.8091 32.8649 52.1929 31.9274 51.7478 30.592C51.4243 29.6216 51.2923 28.6239 51.4091 27.6164C51.5136 26.7157 51.817 25.8071 52.3604 24.9033C53.3259 23.2976 56.1237 21.9276 56.1237 21.9276M58.6618 35.9306C58.6618 35.9306 60.1536 34.7877 61.2874 34.6179C62.3821 34.4538 64.0879 35.0555 64.0879 35.0555M56.1237 21.9276C56.1237 21.9276 54.1467 21.7287 53.2356 20.9649C52.6307 20.4579 52.3557 19.5846 52.2484 18.6894C52.0685 17.1885 52.0691 16.7873 52.3604 15.6263C52.6597 14.4338 52.615 13.9636 53.4982 12.5631C54.1213 11.575 54.9619 11.0103 56.1237 10.3752C57.0259 9.88198 58.6618 9.675 58.6618 9.675M56.1237 21.9276C56.1237 21.9276 58.0294 21.6256 59.1869 21.9276C60.5997 22.2963 62.3376 23.9406 62.3376 23.9406M58.6618 9.675C58.6618 9.675 58.277 7.69302 58.6618 6.52433C59.1465 5.05232 59.8575 4.14636 61.2874 3.54869C62.9419 2.85709 64.1542 3.54504 65.8383 4.16132C67.468 4.75769 68.157 6.50783 70.0392 6.52433C71.9513 6.54108 72.698 4.75769 74.3276 4.16132C76.0117 3.54504 77.2241 2.85709 78.8786 3.54869C80.3085 4.14636 81.0195 5.05232 81.5042 6.52433C81.889 7.69302 81.5042 9.675 81.5042 9.675M58.6618 9.675C58.6618 9.675 59.9091 10.2348 60.7622 10.3752C61.6391 10.5194 63.0377 10.3752 63.0377 10.3752M70.1267 29.1917V40.6567H72.4898C72.4898 40.6567 73.9945 42.0731 75.2028 42.4946C76.7519 43.0348 77.9113 43.1758 79.4037 42.4946C80.1696 42.145 80.8089 41.7175 81.2907 41.1818C81.869 40.5386 82.2205 39.7394 82.2919 38.7312C82.3721 37.5979 81.5042 35.9306 81.5042 35.9306M81.5042 35.9306C81.5042 35.9306 83.9041 35.4518 85.18 34.6179C85.8837 34.1579 86.4569 33.7014 86.9304 33.1923C87.5932 32.4797 88.0608 31.6641 88.4182 30.592C88.6571 29.8752 88.7916 29.1436 88.7985 28.404C88.8093 27.2473 88.5079 26.0714 87.8055 24.9033C86.8401 23.2976 84.0422 21.9276 84.0422 21.9276M81.5042 35.9306C81.5042 35.9306 80.0123 34.7877 78.8786 34.6179C77.7839 34.4538 76.078 35.0555 76.078 35.0555M84.0422 21.9276C84.0422 21.9276 86.0192 21.7287 86.9304 20.9649C87.4158 20.558 87.6888 19.9152 87.8331 19.2146C88.1703 17.5782 87.8055 15.6263 87.8055 15.6263C87.8055 15.6263 87.4898 14.3104 86.9304 13.2633C86.2688 12.025 85.2663 10.9836 84.0422 10.3752C83.1215 9.91749 81.5042 9.675 81.5042 9.675M84.0422 21.9276C84.0422 21.9276 82.1366 21.6256 80.9791 21.9276C79.5663 22.2963 77.8284 23.9406 77.8284 23.9406M81.5042 9.675C81.5042 9.675 80.2569 10.2348 79.4037 10.3752C78.5269 10.5194 77.1283 10.3752 77.1283 10.3752" stroke="#212E58" stroke-width="0.43"/>
<circle cx="22.867" cy="67.7" r="9.93718" stroke="#212E58" stroke-width="0.43"/>
<path d="M36.1411 84.6512L35.9334 84.7066L36.0174 85.0214L36.2738 84.8203L36.1411 84.6512ZM43.9524 72.0684L44.1629 72.1118L44.2391 71.7423L43.8824 71.8651L43.9524 72.0684ZM29.1106 88.3102L29.1728 88.516L29.485 88.4215L29.2751 88.1718L29.1106 88.3102ZM15.0463 87.7655L14.881 87.628L14.6901 87.8574L14.9682 87.9658L15.0463 87.7655ZM8.22968 83.4893L8.08348 83.647L8.30182 83.8495L8.42532 83.5785L8.22968 83.4893ZM1.61719 71.1852L1.64879 70.9725L1.3577 70.9293L1.40498 71.2197L1.61719 71.1852ZM1.82238 63.1309L1.61223 63.0855L1.55003 63.3733L1.84313 63.3449L1.82238 63.1309ZM8.89589 51.3179L9.10305 51.2604L9.0128 50.9355L8.75631 51.1544L8.89589 51.3179ZM15.707 47.3894L15.6355 47.1866L15.3173 47.2988L15.5534 47.5398L15.707 47.3894ZM30.2984 47.4877L30.4376 47.6515L30.7183 47.4131L30.3726 47.2859L30.2984 47.4877ZM36.9059 51.3775L37.0462 51.2145L36.7669 50.9741L36.6951 51.3356L36.9059 51.3775ZM44.1546 64.4663L44.0738 64.6655L44.4233 64.8072L44.3672 64.4342L44.1546 64.4663ZM36.2738 84.8203C40.2454 81.7057 43.1064 77.2386 44.1629 72.1118L43.7418 72.025C42.7063 77.0494 39.9022 81.4284 36.0085 84.482L36.2738 84.8203ZM32.2192 81.8564C33.9982 81.8564 35.4955 83.0652 35.9334 84.7066L36.3489 84.5957C35.862 82.7708 34.1979 81.4264 32.2192 81.4264V81.8564ZM28.3753 85.7002C28.3753 83.5773 30.0962 81.8564 32.2192 81.8564V81.4264C29.8588 81.4264 27.9453 83.3398 27.9453 85.7002H28.3753ZM29.2751 88.1718C28.7134 87.5035 28.3753 86.6416 28.3753 85.7002H27.9453C27.9453 86.7466 28.3216 87.7056 28.946 88.4485L29.2751 88.1718ZM22.8662 89.4447C25.0591 89.4447 27.1765 89.12 29.1728 88.516L29.0483 88.1044C27.0919 88.6963 25.0164 89.0147 22.8662 89.0147V89.4447ZM14.9682 87.9658C17.4166 88.9207 20.0805 89.4447 22.8662 89.4447V89.0147C20.1348 89.0147 17.5239 88.501 15.1244 87.5652L14.9682 87.9658ZM15.7688 85.1708C15.7688 86.1055 15.4355 86.9617 14.881 87.628L15.2116 87.903C15.8279 87.1624 16.1988 86.2096 16.1988 85.1708H15.7688ZM11.9249 81.327C14.0479 81.327 15.7688 83.0479 15.7688 85.1708H16.1988C16.1988 82.8104 14.2853 80.897 11.9249 80.897V81.327ZM8.42532 83.5785C9.03089 82.2498 10.3704 81.327 11.9249 81.327V80.897C10.1958 80.897 8.7069 81.9239 8.03404 83.4002L8.42532 83.5785ZM1.40498 71.2197C2.19903 76.0982 4.61617 80.4313 8.08348 83.647L8.37588 83.3317C4.97651 80.179 2.60758 75.9317 1.82939 71.1507L1.40498 71.2197ZM2.21892 71.0145C2.02508 71.0145 1.83471 71.0002 1.64879 70.9725L1.58558 71.3979C1.79235 71.4286 2.00385 71.4445 2.21892 71.4445V71.0145ZM6.06279 67.1706C6.06279 69.2935 4.34183 71.0145 2.21892 71.0145V71.4445C4.57931 71.4445 6.49279 69.531 6.49279 67.1706H6.06279ZM2.21892 63.3268C4.34183 63.3268 6.06279 65.0477 6.06279 67.1706H6.49279C6.49279 64.8102 4.57931 62.8968 2.21892 62.8968V63.3268ZM1.84313 63.3449C1.96672 63.3329 2.09207 63.3268 2.21892 63.3268V62.8968C2.07819 62.8968 1.93898 62.9036 1.80163 62.9169L1.84313 63.3449ZM8.75631 51.1544C5.2011 54.1891 2.63558 58.35 1.61223 63.0855L2.03252 63.1763C3.03543 58.5355 5.5499 54.4567 9.03548 51.4814L8.75631 51.1544ZM12.8071 54.0731C11.0416 54.0731 9.55364 52.8827 9.10305 51.2604L8.68873 51.3755C9.18967 53.1791 10.8435 54.5031 12.8071 54.5031V54.0731ZM16.651 50.2293C16.651 52.3522 14.93 54.0731 12.8071 54.0731V54.5031C15.1675 54.5031 17.081 52.5897 17.081 50.2293H16.651ZM15.5534 47.5398C16.2326 48.2333 16.651 49.1822 16.651 50.2293H17.081C17.081 49.0652 16.6153 48.0095 15.8606 47.2389L15.5534 47.5398ZM22.8662 45.9554C20.3316 45.9554 17.8979 46.3891 15.6355 47.1866L15.7785 47.5921C17.9956 46.8106 20.381 46.3854 22.8662 46.3854V45.9554ZM30.3726 47.2859C28.0327 46.4252 25.5041 45.9554 22.8662 45.9554V46.3854C25.4527 46.3854 27.9311 46.846 30.2242 47.6895L30.3726 47.2859ZM29.0811 50.5823C29.0811 49.408 29.6073 48.357 30.4376 47.6515L30.1592 47.3238C29.2369 48.1075 28.6511 49.2766 28.6511 50.5823H29.0811ZM32.925 54.4261C30.802 54.4261 29.0811 52.7052 29.0811 50.5823H28.6511C28.6511 52.9427 30.5646 54.8561 32.925 54.8561V54.4261ZM36.6951 51.3356C36.345 53.0978 34.7899 54.4261 32.925 54.4261V54.8561C34.999 54.8561 36.7276 53.3789 37.1168 51.4194L36.6951 51.3356ZM44.3672 64.4342C43.5747 59.1733 40.8976 54.5303 37.0462 51.2145L36.7657 51.5404C40.5417 54.7913 43.1653 59.3425 43.942 64.4983L44.3672 64.4342ZM42.631 64.3856C43.1417 64.3856 43.6286 64.4851 44.0738 64.6655L44.2353 64.267C43.7397 64.0661 43.198 63.9556 42.631 63.9556V64.3856ZM38.7871 68.2295C38.7871 66.1066 40.5081 64.3856 42.631 64.3856V63.9556C40.2706 63.9556 38.3571 65.8691 38.3571 68.2295H38.7871ZM42.631 72.0733C40.5081 72.0733 38.7871 70.3524 38.7871 68.2295H38.3571C38.3571 70.5899 40.2706 72.5033 42.631 72.5033V72.0733ZM43.8824 71.8651C43.4904 72 43.0695 72.0733 42.631 72.0733V72.5033C43.1177 72.5033 43.5859 72.4219 44.0223 72.2717L43.8824 71.8651Z" fill="#212E58"/>
<circle cx="69.7765" cy="25.6911" r="1.36034" stroke="#212E58" stroke-width="0.43"/>
<path d="M58.5742 76.277C58.5742 76.277 65.3321 75.7988 68.7264 73.4764C71.4678 71.6008 72.8181 70.0019 74.2401 67C75.4399 64.4672 75.4915 62.7824 75.8154 59.9985C76.1709 56.9431 75.8154 52.1218 75.8154 52.1218M75.8154 52.1218L70.7393 56.3227M75.8154 52.1218L81.4166 54.9224" stroke="#212E58" stroke-width="0.43"/>
<path d="M38.0546 16.1999C38.0546 16.1999 31.4032 14.9127 27.5235 16.2774C24.39 17.3796 22.6719 18.5746 20.5214 21.1061C18.707 23.2421 18.221 24.8562 17.1876 27.4613C16.0535 30.3206 15.149 35.0696 15.149 35.0696M15.149 35.0696L21.1394 32.3257M15.149 35.0696L10.4635 30.9148" stroke="#212E58" stroke-width="0.43"/>
<defs>
<linearGradient id="paint0_linear_2009_1270" x1="60.053" y1="8.20024" x2="85.4428" y2="37.4084" gradientUnits="userSpaceOnUse">
<stop stop-color="#E2F2FA"/>
<stop offset="1" stop-color="#7FCEEE"/>
</linearGradient>
<linearGradient id="paint1_linear_2009_1270" x1="12.1905" y1="52.1157" x2="39.9086" y2="86.0751" gradientUnits="userSpaceOnUse">
<stop stop-color="#E2F2FA"/>
<stop offset="1" stop-color="#7FCEEE"/>
</linearGradient>
</defs>
</svg>
