<svg width="99" height="96" viewBox="0 0 99 96" fill="none" xmlns="http://www.w3.org/2000/svg">
<path d="M36.983 52.2883H93.7908C95.9999 52.2883 97.7908 50.4975 97.7908 48.2883V7.99387M32.709 7.99387V5C32.709 2.79086 34.4998 1 36.709 1H93.7908C95.9999 1 97.7908 2.79086 97.7908 5V7.99387M32.709 7.99387H97.7908M32.709 7.99387V35.6779" stroke="#212E58" stroke-width="0.43"/>
<circle cx="19.3253" cy="29.0736" r="9.97376" fill="url(#paint0_linear_2009_1286)"/>
<path d="M29.9107 54.517V83.217H8.5383V77.3142C8.13121 78.0605 6.7471 79.5532 4.46738 79.5532C2.18766 79.5532 1.34634 78.0605 1.21064 77.3142V51.6674C1.07494 50.5139 1.16993 47.7186 2.63546 45.7645C4.101 43.8105 7.18133 42.9149 8.5383 42.7113H29.9107L47.8227 23.7815C48.4673 23.0013 50.2246 21.9089 52.0972 23.7815C53.9698 25.6542 53.5559 28.3613 53.1149 29.4808L29.9107 54.517Z" fill="url(#paint1_linear_2009_1286)"/>
<path d="M63.2109 38.3007L70.7876 32.6668L77.3929 19.4562L84.1925 23.9245L90.7978 13.6279" stroke="#212E58" stroke-width="0.43"/>
<path d="M91.1855 47.043V21.7874" stroke="#212E58" stroke-width="0.43"/>
<path d="M84.3867 47.043V31.1125" stroke="#212E58" stroke-width="0.43"/>
<path d="M77.5859 47.0429V27.6155" stroke="#212E58" stroke-width="0.43"/>
<path d="M71.1758 47.0429V37.7178" stroke="#212E58" stroke-width="0.43"/>
<path d="M38.9269 13.822L60.6855 13.822" stroke="#212E58" stroke-width="0.43"/>
<path d="M38.9269 16.9304L60.6855 16.9304" stroke="#212E58" stroke-width="0.43"/>
<path d="M38.9269 20.0388L60.6855 20.0388" stroke="#212E58" stroke-width="0.43"/>
<path d="M65.3473 13.822L70.3984 13.822" stroke="#212E58" stroke-width="0.43"/>
<path d="M65.3473 16.9304L70.3984 16.9304" stroke="#212E58" stroke-width="0.43"/>
<path d="M65.3473 20.0388L70.3984 20.0388" stroke="#212E58" stroke-width="0.43"/>
<circle cx="18.3319" cy="29.5582" r="9.30443" stroke="#212E58" stroke-width="0.43"/>
<circle cx="46.3085" cy="69.1901" r="9.30443" stroke="#212E58" stroke-width="0.43"/>
<circle cx="82.6386" cy="69.1901" r="9.30443" stroke="#212E58" stroke-width="0.43"/>
<path d="M31.543 95.9999V87.6461C31.8668 85.9948 33.3109 82.6921 36.497 82.6921C39.6831 82.6921 50.9704 82.6921 56.2158 82.6921C57.8671 82.7245 61.1698 83.7606 61.1698 87.6461C61.1698 91.5316 61.1698 94.8343 61.1698 95.9999" stroke="#212E58" stroke-width="0.43"/>
<path d="M67.873 95.9999V87.6461C68.1968 85.9948 69.6409 82.6921 72.827 82.6921C76.0131 82.6921 87.3004 82.6921 92.5458 82.6921C94.1972 82.7245 97.4998 83.7606 97.4998 87.6461C97.4998 91.5316 97.4998 94.8343 97.4998 95.9999" stroke="#212E58" stroke-width="0.43"/>
<path d="M8.03646 81.2352V75.6012M8.03646 53.8425V75.6012M28.4352 81.2352V53.8425L50.5825 29.9468C51.0034 28.8783 51.3984 26.2945 49.6111 24.5071C47.8238 22.7198 46.1466 23.7624 45.5314 24.5071L28.4352 42.5746H8.03646C6.7413 42.7689 3.80128 43.6237 2.40251 45.4887C1.00374 47.3538 0.913076 50.0218 1.04259 51.1227V75.6012C1.17211 76.3135 1.97511 77.7382 4.15098 77.7382C6.32685 77.7382 7.64791 76.3135 8.03646 75.6012" stroke="#212E58" stroke-width="0.43"/>
<path d="M16.002 50.5399V47.043H19.4989V50.5399M16.002 50.5399H19.4989M16.002 50.5399V65.8876L17.8233 68.6074L19.4989 65.8876V50.5399" stroke="#212E58" stroke-width="0.43"/>
<defs>
<linearGradient id="paint0_linear_2009_1286" x1="19.3253" y1="19.0999" x2="19.3253" y2="39.0474" gradientUnits="userSpaceOnUse">
<stop stop-color="#7FCEEE"/>
<stop offset="1" stop-color="#E2F2FA"/>
</linearGradient>
<linearGradient id="paint1_linear_2009_1286" x1="27.3276" y1="22.7476" x2="27.3276" y2="83.217" gradientUnits="userSpaceOnUse">
<stop stop-color="#7FCEEE"/>
<stop offset="1" stop-color="#E2F2FA"/>
</linearGradient>
</defs>
</svg>
