<svg width="97" height="98" viewBox="0 0 97 98" fill="none" xmlns="http://www.w3.org/2000/svg">
<path d="M50.8875 39.0912V86.6383H15.9278H8.89453V40.3262H15.9278V32.7104H43.4405C43.4405 32.7104 46.0236 33.2283 47.3709 34.1513C48.3589 34.8282 48.848 35.3395 49.5429 36.3125C50.2441 37.2943 50.8875 39.0912 50.8875 39.0912Z" fill="url(#paint0_linear_2009_1258)"/>
<path d="M50.8875 39.0912V86.6383H85.8472H92.8805V40.3262H85.8472V32.7104H58.3346C58.3346 32.7104 55.7515 33.2283 54.4042 34.1513C53.4161 34.8282 52.927 35.3395 52.2321 36.3125C51.531 37.2943 50.8875 39.0912 50.8875 39.0912Z" fill="url(#paint1_linear_2009_1258)"/>
<path d="M0.215 6.85847C0.215 3.18939 3.18938 0.215 6.85847 0.215H90.1415C93.8106 0.215 96.785 3.18938 96.785 6.85847V16.5947V90.3391C96.785 94.0082 93.8106 96.9826 90.1415 96.9826H6.85848C3.18939 96.9826 0.215 94.0082 0.215 90.3391V16.5947V6.85847Z" stroke="#212E58" stroke-width="0.43"/>
<circle cx="8.98446" cy="9.37899" r="1.38289" fill="url(#paint2_linear_2009_1258)"/>
<circle cx="15.7013" cy="9.37899" r="1.38289" fill="url(#paint3_linear_2009_1258)"/>
<circle cx="22.418" cy="9.37899" r="1.38289" fill="url(#paint4_linear_2009_1258)"/>
<circle cx="8.09969" cy="8.49495" r="1.16789" stroke="#212E58" stroke-width="0.43"/>
<circle cx="14.8165" cy="8.49495" r="1.16789" stroke="#212E58" stroke-width="0.43"/>
<circle cx="21.5333" cy="8.49495" r="1.16789" stroke="#212E58" stroke-width="0.43"/>
<path d="M48.9945 81.5907V35.9553M48.9945 81.5907C48.9945 81.5907 48.3801 79.3112 47.6116 78.0347C46.8498 76.7694 46.3544 76.0138 45.1421 75.1702C43.3527 73.9248 39.7094 73.886 39.7094 73.886H15.6075M48.9945 81.5907H15.6075M48.9945 81.5907C48.9945 81.5907 49.6088 79.3112 50.3774 78.0347C51.1392 76.7694 51.6345 76.0138 52.8468 75.1702C54.6362 73.9248 58.2796 73.886 58.2796 73.886H82.3815M48.9945 81.5907H82.3815M48.9945 35.9553C48.9945 35.9553 48.38 34.2306 47.7104 33.2883C47.0468 32.3544 46.5796 31.8636 45.636 31.2139C44.3493 30.3281 41.8825 29.8311 41.8825 29.8311H15.6075V37.1406M48.9945 35.9553C48.9945 35.9553 49.609 34.2306 50.2786 33.2883C50.9422 32.3544 51.4093 31.8636 52.3529 31.2139C53.6396 30.3281 56.1065 29.8311 56.1065 29.8311H82.3815V37.1406M15.6075 73.886V37.1406M15.6075 73.886V81.5907M15.6075 37.1406H8.89062V81.5907H15.6075M23.9049 42.2771H39.7094M23.9049 52.1549H39.7094M23.9049 62.8229H39.7094M82.3815 73.886V37.1406M82.3815 73.886V81.5907M82.3815 37.1406H89.0984V81.5907H82.3815M74.0841 42.2771H58.2796M74.0841 52.1549H58.2796M74.0841 62.8229H58.2796" stroke="#212E58" stroke-width="0.43"/>
<defs>
<linearGradient id="paint0_linear_2009_1258" x1="50.8875" y1="32.7104" x2="50.8875" y2="86.6383" gradientUnits="userSpaceOnUse">
<stop stop-color="#7FCEEE"/>
<stop offset="1" stop-color="#E2F2FA"/>
</linearGradient>
<linearGradient id="paint1_linear_2009_1258" x1="50.8875" y1="32.7104" x2="50.8875" y2="86.6383" gradientUnits="userSpaceOnUse">
<stop stop-color="#7FCEEE"/>
<stop offset="1" stop-color="#E2F2FA"/>
</linearGradient>
<linearGradient id="paint2_linear_2009_1258" x1="8.98446" y1="7.99609" x2="8.98446" y2="10.7619" gradientUnits="userSpaceOnUse">
<stop stop-color="#84D0EE"/>
<stop offset="1" stop-color="#DDF0F9"/>
</linearGradient>
<linearGradient id="paint3_linear_2009_1258" x1="15.7013" y1="7.99609" x2="15.7013" y2="10.7619" gradientUnits="userSpaceOnUse">
<stop stop-color="#84D0EE"/>
<stop offset="1" stop-color="#DDF0F9"/>
</linearGradient>
<linearGradient id="paint4_linear_2009_1258" x1="22.418" y1="7.99609" x2="22.418" y2="10.7619" gradientUnits="userSpaceOnUse">
<stop stop-color="#84D0EE"/>
<stop offset="1" stop-color="#DDF0F9"/>
</linearGradient>
</defs>
</svg>
