<svg width="25" height="26" viewBox="0 0 25 26" fill="none" xmlns="http://www.w3.org/2000/svg">
<path d="M19.0554 12.0571H17.4943C16.9605 12.0571 16.5254 12.499 16.5254 13.041V14.6261C16.5254 15.1682 16.9605 15.61 17.4943 15.61H19.0554C19.5893 15.61 20.0244 15.1682 20.0244 14.6261V13.041C20.0244 12.499 19.5893 12.0571 19.0554 12.0571ZM18.9837 14.5533H17.5661V13.1139H18.9837V14.5533Z" fill="#014D80"/>
<path d="M19.0554 18.1743H17.4943C16.9605 18.1743 16.5254 18.6162 16.5254 19.1582V20.7433C16.5254 21.2854 16.9605 21.7272 17.4943 21.7272H19.0554C19.5893 21.7272 20.0244 21.2854 20.0244 20.7433V19.1582C20.0244 18.6116 19.5893 18.1743 19.0554 18.1743ZM18.9837 20.6659H17.5661V19.2265H18.9837V20.6659Z" fill="#014D80"/>
<path d="M13.0359 18.1743H11.4748C10.941 18.1743 10.5059 18.6162 10.5059 19.1582V20.7433C10.5059 21.2854 10.941 21.7272 11.4748 21.7272H13.0359C13.5697 21.7272 14.0049 21.2854 14.0049 20.7433V19.1582C14.0004 18.6116 13.5697 18.1743 13.0359 18.1743ZM12.9597 20.6659H11.5421V19.2265H12.9597V20.6659Z" fill="#014D80"/>
<path d="M13.0359 12.0571H11.4748C10.941 12.0571 10.5059 12.499 10.5059 13.041V14.6261C10.5059 15.1682 10.941 15.61 11.4748 15.61H13.0359C13.5697 15.61 14.0049 15.1682 14.0049 14.6261V13.041C14.0004 12.499 13.5697 12.0571 13.0359 12.0571ZM12.9597 14.5533H11.5421V13.1139H12.9597V14.5533Z" fill="#014D80"/>
<path d="M7.01052 18.1743H5.44943C4.9156 18.1743 4.48047 18.6162 4.48047 19.1582V20.7433C4.48047 21.2854 4.9156 21.7272 5.44943 21.7272H7.01052C7.54435 21.7272 7.97948 21.2854 7.97948 20.7433V19.1582C7.97948 18.6116 7.54435 18.1743 7.01052 18.1743ZM6.93875 20.6659H5.5212V19.2265H6.93875V20.6659Z" fill="#014D80"/>
<path d="M7.01052 12.0571H5.44943C4.9156 12.0571 4.48047 12.499 4.48047 13.041V14.6261C4.48047 15.1682 4.9156 15.61 5.44943 15.61H7.01052C7.54435 15.61 7.97948 15.1682 7.97948 14.6261V13.041C7.97948 12.499 7.54435 12.0571 7.01052 12.0571ZM6.93875 14.5533H5.5212V13.1139H6.93875V14.5533Z" fill="#014D80"/>
<path d="M20.7922 2.23196H20.7788V1.48038C20.7788 0.665032 20.1238 0 19.3208 0H18.5896C17.7867 0 17.1317 0.665032 17.1317 1.48038V2.23196H7.86829V1.48038C7.86829 0.665032 7.21335 0 6.41037 0H5.67917C4.8717 0 4.21676 0.665032 4.21676 1.48038V2.23196H4.2033C1.88857 2.23196 0 4.14961 0 6.50456V21.7274C0 24.0823 1.88857 26 4.20779 26H20.7922C23.1114 26 25 24.0823 25 21.7274V6.50456C25 4.14961 23.1114 2.23196 20.7922 2.23196ZM18.1007 1.48038C18.1007 1.20708 18.3205 0.983882 18.5896 0.983882H19.3208C19.59 0.983882 19.8098 1.20708 19.8098 1.48038V3.96741C19.8098 4.24071 19.59 4.46391 19.3208 4.46391H18.5896C18.3205 4.46391 18.1007 4.24071 18.1007 3.96741V1.48038ZM5.1902 1.48038C5.1902 1.20708 5.41001 0.983882 5.67917 0.983882H6.41037C6.67953 0.983882 6.89934 1.20708 6.89934 1.48038V3.96741C6.89934 4.24071 6.67953 4.46391 6.41037 4.46391H5.67917C5.41001 4.46391 5.1902 4.24071 5.1902 3.96741V1.48038ZM4.20779 3.22039H4.21676V3.96741C4.21676 4.78276 4.8717 5.44779 5.67468 5.44779H6.40589C7.20886 5.44779 7.86381 4.78276 7.86381 3.96741V3.22039H17.1227V3.96741C17.1227 4.78276 17.7777 5.44779 18.5807 5.44779H19.3119C20.1148 5.44779 20.7698 4.78276 20.7698 3.96741V3.22039H20.7832C22.5686 3.22039 24.0176 4.69166 24.0176 6.50456V8.08514H0.959986V6.50456C0.973443 4.69166 2.42239 3.22039 4.20779 3.22039ZM20.7922 25.0116H4.20779C2.42239 25.0116 0.973443 23.5403 0.973443 21.7274V9.06447H24.031V21.7274C24.0266 23.5403 22.5776 25.0116 20.7922 25.0116Z" fill="#014D80"/>
</svg>
