<svg width="16" height="16" viewBox="0 0 16 16" fill="none" xmlns="http://www.w3.org/2000/svg">
<g clip-path="url(#clip0)">
<path d="M10.606 8.08183L16 11.4918V4.52783L10.606 8.08183Z" fill="white"/>
<path d="M0 4.52783V11.4918L5.394 8.08183L0 4.52783Z" fill="white"/>
<path d="M15.0003 2.5H1.00027C0.501273 2.5 0.105273 2.872 0.0302734 3.351L8.00027 8.602L15.9703 3.351C15.8953 2.872 15.4993 2.5 15.0003 2.5Z" fill="white"/>
<path d="M9.68974 8.68606L8.27474 9.61806C8.19074 9.67306 8.09574 9.70006 7.99974 9.70006C7.90374 9.70006 7.80874 9.67306 7.72474 9.61806L6.30974 8.68506L0.0317383 12.6561C0.108738 13.1311 0.502738 13.5001 0.999738 13.5001H14.9997C15.4967 13.5001 15.8907 13.1311 15.9677 12.6561L9.68974 8.68606Z" fill="white"/>
</g>
<defs>
<clipPath id="clip0">
<rect width="16" height="16" fill="white"/>
</clipPath>
</defs>
</svg>
