<svg width="25" height="26" viewBox="0 0 25 26" fill="none" xmlns="http://www.w3.org/2000/svg">
<g clip-path="url(#clip0)">
<path d="M24.8756 13.4727C24.8756 20.3065 19.3349 25.8477 12.5016 25.8477C5.66514 25.8477 0.124512 20.3065 0.124512 13.4727C0.124512 6.63724 5.66514 1.09766 12.5016 1.09766C19.3349 1.09766 24.8756 6.63724 24.8756 13.4727ZM10.4339 21.207H13.6459V13.4779H15.8141L16.0948 10.7477H13.6459V9.14193C13.6459 8.53984 14.0464 8.3987 14.3271 8.3987H16.0552V5.74766L13.6761 5.73828C11.0344 5.73828 10.4339 7.71536 10.4339 8.97995V10.7477H8.90628V13.4779H10.4339V21.207Z" fill="white"/>
</g>
<defs>
<clipPath id="clip0">
<rect width="25" height="25" fill="white" transform="translate(0 0.972656)"/>
</clipPath>
</defs>
</svg>
