<svg width="25" height="26" viewBox="0 0 25 26" fill="none" xmlns="http://www.w3.org/2000/svg">
<g clip-path="url(#clip0)">
<path d="M12.5 10.1509C10.6675 10.1509 9.1792 11.6367 9.1792 13.4725C9.1792 15.3075 10.6684 16.795 12.5 16.795C14.3325 16.795 15.8225 15.3075 15.8225 13.4725C15.8225 11.6367 14.3325 10.1509 12.5 10.1509ZM12.5 15.6442C11.2967 15.6442 10.3275 14.6717 10.3275 13.4725C10.3275 12.2734 11.2967 11.3009 12.5 11.3009C13.6909 11.3009 14.6725 12.2734 14.6725 13.4725C14.6725 14.6717 13.7034 15.6442 12.5 15.6442Z" fill="white"/>
<path d="M16.1541 8.93604C15.7266 8.93604 15.3875 9.27604 15.3875 9.70354C15.3875 10.1302 15.7266 10.4694 16.1541 10.4694C16.5816 10.4694 16.9216 10.1302 16.9216 9.70354C16.9216 9.27604 16.5808 8.93604 16.1541 8.93604Z" fill="white"/>
<path d="M12.5018 1.09766C5.6651 1.09766 0.124268 6.63682 0.124268 13.4727C0.124268 20.3068 5.6651 25.8477 12.5018 25.8477C19.3343 25.8477 24.8768 20.3077 24.8768 13.4727C24.8768 6.63682 19.3343 1.09766 12.5018 1.09766ZM18.8884 16.1935C18.8884 18.2127 17.2393 19.861 15.2084 19.861H9.79177C7.7601 19.861 6.11093 18.2118 6.11093 16.206V10.751C6.11093 8.73266 7.75927 7.08432 9.79177 7.08432H15.2084C17.2401 7.08432 18.8884 8.73266 18.8884 10.751V16.1935Z" fill="white"/>
</g>
<defs>
<clipPath id="clip0">
<rect width="25" height="25" fill="white" transform="translate(0 0.972656)"/>
</clipPath>
</defs>
</svg>
