<svg width="20" height="13" viewBox="0 0 20 13" fill="none" xmlns="http://www.w3.org/2000/svg">
<path d="M0.909091 0C0.41725 0 0 0.411495 0 0.896552V12.1034C0 12.5885 0.41725 13 0.909091 13H19.0909C19.5828 13 20 12.5885 20 12.1034V0.896552C20 0.411495 19.5828 0 19.0909 0H0.909091ZM1.36364 1.34483H18.6364V1.67404L10 7.90086L1.36364 1.67404V1.34483ZM1.36364 3.34104L9.59517 9.2807C9.71242 9.36601 9.85429 9.41204 10 9.41204C10.1457 9.41204 10.2876 9.36601 10.4048 9.2807L18.6364 3.34104V11.6552H1.36364V3.34104Z" fill="#206999"/>
</svg>
