<svg width="17" height="22" viewBox="0 0 17 22" fill="none" xmlns="http://www.w3.org/2000/svg">
<path d="M8.17655 0C3.69263 0 0 3.65966 0 8.14358C0 12.5286 7.3523 20.2435 7.71497 20.6062L8.17655 21.1008L8.63813 20.6062C8.96783 20.2765 16.3201 12.5286 16.3201 8.14358C16.3531 3.65966 12.6605 0 8.17655 0ZM8.17655 19.1226C5.90162 16.6169 1.38474 11.0779 1.38474 8.14358C1.38474 4.385 4.45094 1.38474 8.17655 1.38474C11.9022 1.38474 14.9684 4.45094 14.9684 8.14358C14.9684 11.1109 10.4515 16.6498 8.17655 19.1226Z" fill="#206999"/>
<path d="M8.17657 2.50572C5.44007 2.50572 3.23108 4.71471 3.23108 7.45121C3.23108 10.1877 5.44007 12.3967 8.17657 12.3967C10.9131 12.3967 13.1221 10.1548 13.1221 7.41824C13.1221 4.71471 10.9131 2.50572 8.17657 2.50572ZM8.17657 10.979C6.19837 10.979 4.61582 9.36347 4.61582 7.41824C4.61582 5.47302 6.23134 3.85749 8.17657 3.85749C10.1218 3.85749 11.7373 5.44005 11.7373 7.41824C11.7373 9.39644 10.1548 10.979 8.17657 10.979Z" fill="#206999"/>
</svg>
