<svg width="20" height="20" viewBox="0 0 20 20" fill="none" xmlns="http://www.w3.org/2000/svg">
<path d="M14.9334 20C14.5661 19.9387 14.1962 19.8906 13.8316 19.8133C12.4716 19.4788 11.1683 18.9477 9.96317 18.2369C8.06646 17.1882 6.34756 15.8488 4.86964 14.268C3.07081 12.3236 1.57492 10.1817 0.631276 7.69051C0.265636 6.79422 0.0553416 5.84275 0.0093286 4.87653C-0.0259065 4.40392 0.0389202 3.92921 0.199619 3.48309C0.360318 3.03697 0.613312 2.62936 0.94225 2.2866C1.50522 1.71314 2.04942 1.11834 2.65529 0.59555C3.59089 -0.204634 4.6096 -0.204634 5.51303 0.632892C6.4674 1.52376 7.3896 2.45998 8.27694 3.4122C8.60254 3.76141 8.78346 4.22015 8.78346 4.69649C8.78346 5.17283 8.60254 5.63157 8.27694 5.98079C7.80512 6.51424 7.28236 6.99969 6.78373 7.50914C6.73816 7.55181 6.68991 7.58915 6.6068 7.66384C7.93842 10.0621 9.9269 12.035 12.3411 13.3531L13.5313 12.1555C13.8237 11.8119 14.1902 11.5384 14.6037 11.3554C14.9283 11.2148 15.2875 11.1728 15.6361 11.2345C15.9847 11.2962 16.3072 11.4588 16.5633 11.7021C17.5624 12.6481 18.5364 13.6208 19.4854 14.6201C19.8071 14.9631 19.9902 15.4123 19.9996 15.8814C20.009 16.3505 19.844 16.8065 19.5363 17.162C18.9358 17.8662 18.271 18.533 17.5981 19.1785C17.119 19.6169 16.509 19.8876 15.861 19.9493C15.8147 19.9602 15.769 19.9735 15.7242 19.9893L14.9334 20ZM15.231 18.7971C15.5612 18.8151 15.8914 18.762 16.1991 18.6414C16.5067 18.5208 16.7846 18.3355 17.0137 18.0982C17.4641 17.6288 17.9252 17.17 18.3809 16.7059C18.4398 16.6468 18.4953 16.5845 18.5471 16.5192C18.6247 16.4415 18.6858 16.349 18.7267 16.2474C18.7676 16.1457 18.7875 16.0368 18.7853 15.9273C18.783 15.8178 18.7587 15.7099 18.7136 15.6099C18.6685 15.51 18.6037 15.4201 18.523 15.3456C18.1557 14.9508 17.767 14.5774 17.3863 14.196C16.8904 13.7026 16.3998 13.2064 15.8985 12.721C15.8255 12.6394 15.7365 12.5735 15.637 12.5274C15.5374 12.4813 15.4294 12.456 15.3197 12.453C15.2099 12.45 15.1007 12.4694 14.9988 12.51C14.8968 12.5506 14.8043 12.6115 14.727 12.689C14.6519 12.7503 14.5849 12.8197 14.5152 12.889C14.038 13.3611 13.5662 13.8386 13.0863 14.3054C12.9479 14.4635 12.7586 14.5688 12.5508 14.6033C12.3429 14.6379 12.1295 14.5995 11.947 14.4947C11.6548 14.348 11.3652 14.2013 11.0838 14.036C9.8441 13.2818 8.72231 12.3508 7.75419 11.2727C6.85682 10.3582 6.11281 9.30638 5.55056 8.15728C5.2664 7.53314 5.32805 7.22907 5.81864 6.7543C6.30923 6.27952 6.83467 5.7754 7.3199 5.26329C7.39832 5.19318 7.46138 5.10774 7.50512 5.01229C7.54886 4.91684 7.57234 4.81345 7.5741 4.70856C7.57586 4.60368 7.55586 4.49956 7.51535 4.40271C7.47484 4.30586 7.41469 4.21837 7.33866 4.1457C7.27968 4.07635 7.21802 4.01233 7.15637 3.94832L4.80262 1.59578C4.29862 1.10233 3.85093 1.097 3.34694 1.59578C2.84294 2.09456 2.36844 2.53466 1.91002 3.03344C1.68405 3.26565 1.50238 3.53678 1.37386 3.83363C1.1724 4.47056 1.16401 5.15243 1.34973 5.79408C1.57287 6.7906 1.92428 7.75433 2.39525 8.6614C3.20331 10.2609 4.22799 11.7426 5.44065 13.0651C7.52758 15.4282 10.1686 17.2423 13.1292 18.3463C13.8029 18.5996 14.5118 18.7481 15.231 18.7864V18.7971Z" fill="#206999"/>
</svg>
