<svg width="131" height="90" viewBox="0 0 131 90" fill="none" xmlns="http://www.w3.org/2000/svg">
<path d="M12.6548 85.7258H56.4965C59.0593 85.7258 61.1339 83.6645 61.1339 81.1182V74.1461C61.1339 62.4755 51.615 53.0481 39.8995 53.0481H29.2823C17.5362 53.0481 8.04785 62.5058 8.04785 74.1461V81.1182C8.04785 83.6645 10.1225 85.7258 12.6548 85.7258Z" fill="url(#paint0_linear)"/>
<path d="M34.591 48.3194C43.3472 48.3194 50.4558 41.2564 50.4558 32.5565C50.4558 23.8566 43.3472 16.7937 34.591 16.7937C25.8349 16.7937 18.7262 23.8566 18.7262 32.5565C18.6957 41.2564 25.8043 48.3194 34.591 48.3194Z" fill="url(#paint1_linear)"/>
<path d="M82.5208 85.7258H126.363C128.925 85.7258 131 83.6645 131 81.1182V74.1461C131 62.4755 121.481 53.0481 109.766 53.0481H99.1483C87.4022 53.0481 77.9139 62.5058 77.9139 74.1461V81.1182C77.8834 83.6645 79.958 85.7258 82.5208 85.7258Z" fill="url(#paint2_linear)"/>
<path d="M104.426 48.3194C113.182 48.3194 120.291 41.2564 120.291 32.5565C120.291 23.8566 113.182 16.7937 104.426 16.7937C95.67 16.7937 88.5613 23.8566 88.5613 32.5565C88.5613 41.2564 95.67 48.3194 104.426 48.3194Z" fill="url(#paint3_linear)"/>
<path d="M17.3835 50.8051L9.69515 54.5639C7.83408 55.2611 7.16288 57.1405 6.64423 58.8077L1 76.9957V77.2079H6.64423H30.5024H54.3606H60.0048V76.9957L54.3606 58.8077C53.8725 57.3527 53.1403 55.2611 51.3097 54.5639L43.5604 50.7444" stroke="#212E58" stroke-width="0.4251" stroke-miterlimit="10" stroke-linejoin="round"/>
<path d="M86.2431 50.8051L78.5547 54.5639C76.6937 55.2611 76.0225 57.1405 75.5038 58.8077L69.8596 76.9957V77.2079H75.5038H99.362H123.19H128.834V76.9957L123.19 58.8077C122.702 57.3527 121.969 55.2611 120.139 54.5639L112.389 50.7444" stroke="#212E58" stroke-width="0.4251" stroke-miterlimit="10" stroke-linejoin="round"/>
<path d="M39.0756 47.3188H41.4248C42.096 47.3188 42.6757 47.7129 42.8588 48.2586L46.1843 59.8382L36.3298 56.8676L30.5025 58.1104H30.472L24.6447 56.8676L14.7903 59.8382L18.1158 48.2586C18.2988 47.7129 18.8785 47.3188 19.5497 47.3188H21.8989" stroke="#212E58" stroke-width="0.4251" stroke-miterlimit="10" stroke-linejoin="round"/>
<path d="M22.0815 45.1062V53.5333L30.4716 54.9883L38.8921 53.5333V45.1062" stroke="#212E58" stroke-width="0.4251" stroke-miterlimit="10" stroke-linejoin="round"/>
<path d="M17.3224 27.5851C16.6207 27.2213 15.797 27.0091 15.0953 27.3425C13.5698 28.07 15.0342 33.3748 16.3156 34.8299C16.8648 35.4665 17.5665 35.6484 18.1462 35.6484" stroke="#212E58" stroke-width="0.4251" stroke-miterlimit="10" stroke-linejoin="round"/>
<path d="M43.896 27.5851C44.5977 27.2213 45.4215 27.0091 46.1232 27.3425C47.6486 28.07 46.1842 33.3748 44.9028 34.8299C44.3536 35.4665 43.6519 35.6484 43.0723 35.6484" stroke="#212E58" stroke-width="0.4251" stroke-miterlimit="10" stroke-linejoin="round"/>
<path d="M30.4715 9.54883C16.3152 11.0342 17.0169 22.3107 17.0169 22.3107L18.5729 40.3774C18.7255 42.2265 19.9153 43.8634 21.6239 44.5909L27.4511 47.107C29.3732 47.9254 31.5393 47.9254 33.4614 47.107L39.2887 44.5909C40.9972 43.8331 42.1871 42.2265 42.3396 40.3774L43.8956 22.3107C43.9261 22.3107 44.6278 11.0342 30.4715 9.54883Z" stroke="#212E58" stroke-width="0.4251" stroke-miterlimit="10" stroke-linejoin="round"/>
<path d="M108.637 47.3188H110.986C111.657 47.3188 112.267 47.7129 112.42 48.2586L115.745 59.8382L105.891 56.8676L100.064 58.1104H100.033L94.2058 56.8676L84.3208 59.8382L87.6463 48.2586C87.8294 47.7129 88.4091 47.3188 89.0803 47.3188H91.4295" stroke="#212E58" stroke-width="0.4251" stroke-miterlimit="10" stroke-linejoin="round"/>
<path d="M91.6428 45.1062V53.5333L100.033 54.9883L108.423 53.5333V45.1062" stroke="#212E58" stroke-width="0.4251" stroke-miterlimit="10" stroke-linejoin="round"/>
<path d="M86.8532 27.5851C86.1515 27.2213 85.3277 27.0091 84.626 27.3425C83.1006 28.07 84.565 33.3748 85.8464 34.8299C86.3955 35.4665 87.0973 35.6484 87.677 35.6484" stroke="#212E58" stroke-width="0.4251" stroke-miterlimit="10" stroke-linejoin="round"/>
<path d="M113.457 27.5851C114.159 27.2213 114.983 27.0091 115.684 27.3425C117.21 28.07 115.746 33.3748 114.464 34.8299C113.915 35.4665 113.213 35.6484 112.634 35.6484" stroke="#212E58" stroke-width="0.4251" stroke-miterlimit="10" stroke-linejoin="round"/>
<path d="M87.6767 17.1575C86.4258 19.916 86.5784 22.3107 86.5784 22.3107L88.1343 40.3774C88.2869 42.2265 89.4767 43.8634 91.1853 44.5909L97.0125 47.107C98.9346 47.9254 101.101 47.9254 103.023 47.107L108.85 44.5909C110.559 43.8331 111.748 42.2265 111.901 40.3774L113.457 22.3107C113.457 22.3107 113.579 20.2797 112.664 17.8546" stroke="#212E58" stroke-width="0.4251" stroke-miterlimit="10" stroke-linejoin="round"/>
<path d="M64.8252 0V90" stroke="#212E58" stroke-width="0.4251" stroke-miterlimit="10" stroke-linejoin="round"/>
<path d="M104.579 7.63892H83.6191C83.6191 13.4591 87.2802 18.0667 91.8566 18.0667H112.816C112.847 12.58 109.186 7.63892 104.579 7.63892Z" stroke="#212E58" stroke-width="0.4251" stroke-miterlimit="10" stroke-linejoin="round"/>
<defs>
<linearGradient id="paint0_linear" x1="4.08196" y1="50.2544" x2="98.3554" y2="123.243" gradientUnits="userSpaceOnUse">
<stop stop-color="#E2F2FA"/>
<stop offset="1" stop-color="#7FCEEE"/>
</linearGradient>
<linearGradient id="paint1_linear" x1="24.0323" y1="24.4833" x2="118.309" y2="97.4744" gradientUnits="userSpaceOnUse">
<stop stop-color="#E2F2FA"/>
<stop offset="1" stop-color="#7FCEEE"/>
</linearGradient>
<linearGradient id="paint2_linear" x1="24.2458" y1="12.2701" x2="118.511" y2="85.2516" gradientUnits="userSpaceOnUse">
<stop stop-color="#E2F2FA"/>
<stop offset="1" stop-color="#7FCEEE"/>
</linearGradient>
<linearGradient id="paint3_linear" x1="44.1795" y1="-13.5138" x2="138.474" y2="59.4905" gradientUnits="userSpaceOnUse">
<stop stop-color="#E2F2FA"/>
<stop offset="1" stop-color="#7FCEEE"/>
</linearGradient>
</defs>
</svg>
