<svg width="131" height="121" viewBox="0 0 131 121" fill="none" xmlns="http://www.w3.org/2000/svg">
<path d="M131 63.9172H89.3521V82.0772H131V63.9172Z" fill="url(#paint0_linear)"/>
<path d="M131 31.4561H89.3521V49.4675H131V31.4561Z" fill="url(#paint1_linear)"/>
<path d="M83.0993 20.9849H43.9946V121H83.0993V20.9849Z" fill="url(#paint2_linear)"/>
<path d="M36.0954 41.7779L1.62817 26.2805L43.0666 1L77.5637 16.4674L36.0954 41.7779Z" stroke="#232F58" stroke-width="0.5" stroke-miterlimit="10"/>
<path d="M1 26.5805V102.781L36.0955 117.979L78.222 92.6987V16.4683" stroke="#232F58" stroke-width="0.5" stroke-miterlimit="10"/>
<path d="M14.4039 53.5356L7.0437 50.3643V35.166L14.4039 38.3074V53.5356Z" stroke="#232F58" stroke-width="0.25" stroke-miterlimit="10"/>
<path d="M28.1963 58.9809L20.8362 55.8095V40.6113L28.1963 43.7527V58.9809Z" stroke="#232F58" stroke-width="0.25" stroke-miterlimit="10"/>
<path d="M14.4039 77.8887L7.0437 74.7175V59.5193L14.4039 62.6606V77.8887Z" stroke="#232F58" stroke-width="0.25" stroke-miterlimit="10"/>
<path d="M28.1963 83.3338L20.8362 80.1625V64.9644L28.1963 68.1057V83.3338Z" stroke="#232F58" stroke-width="0.25" stroke-miterlimit="10"/>
<path d="M14.4039 102.242L7.0437 99.0703V83.8721L14.4039 87.0135V102.242Z" stroke="#232F58" stroke-width="0.25" stroke-miterlimit="10"/>
<path d="M28.1963 107.687L20.8362 104.516V89.3174L28.1963 92.4587V107.687Z" stroke="#232F58" stroke-width="0.25" stroke-miterlimit="10"/>
<path d="M48.8711 55.9592L41.511 60.2973V45.0991L48.8711 40.7012V55.9592Z" stroke="#232F58" stroke-width="0.25" stroke-miterlimit="10"/>
<path d="M48.8711 79.4446L41.511 83.7826V68.5844L48.8711 64.1865V79.4446Z" stroke="#232F58" stroke-width="0.25" stroke-miterlimit="10"/>
<path d="M48.8711 102.93L41.511 107.268V92.0996L48.8711 87.7017V102.93Z" stroke="#232F58" stroke-width="0.25" stroke-miterlimit="10"/>
<path d="M60.9288 48.9282L53.5686 53.2664V38.0681L60.9288 33.6702V48.9282Z" stroke="#232F58" stroke-width="0.25" stroke-miterlimit="10"/>
<path d="M60.9288 72.4139L53.5686 76.7519V61.5538L60.9288 57.1858V72.4139Z" stroke="#232F58" stroke-width="0.25" stroke-miterlimit="10"/>
<path d="M60.9288 95.9291L53.5686 100.267V85.069L60.9288 80.6711V95.9291Z" stroke="#232F58" stroke-width="0.25" stroke-miterlimit="10"/>
<path d="M72.8067 41.8976L65.4465 46.2357V31.0374L72.8366 26.6694L72.8067 41.8976Z" stroke="#232F58" stroke-width="0.25" stroke-miterlimit="10"/>
<path d="M72.8067 65.4129L65.4465 69.7509V54.5527L72.8366 50.1548L72.8067 65.4129Z" stroke="#232F58" stroke-width="0.25" stroke-miterlimit="10"/>
<path d="M72.8067 88.8986L65.4465 93.2367V78.0385L72.8366 73.6704L72.8067 88.8986Z" stroke="#232F58" stroke-width="0.25" stroke-miterlimit="10"/>
<path d="M36.1553 117.679V41.748" stroke="#232F58" stroke-width="0.5" stroke-miterlimit="10"/>
<path d="M129.175 59.7288H88.155V77.7702H129.175V59.7288Z" stroke="#232F58" stroke-width="0.5" stroke-miterlimit="10"/>
<path d="M109.039 71.9648H125.225" stroke="#232F58" stroke-width="0.5" stroke-miterlimit="10"/>
<path d="M109.039 65.5623H117.805" stroke="#232F58" stroke-width="0.5" stroke-miterlimit="10"/>
<path d="M92.4338 66.0115L96.8918 72.4139L108.411 51.292" stroke="#232F58" stroke-width="0.5" stroke-miterlimit="10"/>
<path d="M88.0056 68.5542H58.5051" stroke="#232F58" stroke-width="0.5" stroke-miterlimit="10"/>
<path d="M106.885 59.8779V77.6501" stroke="#232F58" stroke-width="0.5" stroke-miterlimit="10"/>
<path d="M129.175 27.3279H88.155V45.3693H129.175V27.3279Z" stroke="#232F58" stroke-width="0.5" stroke-miterlimit="10"/>
<path d="M109.039 39.564H125.225" stroke="#232F58" stroke-width="0.5" stroke-miterlimit="10"/>
<path d="M109.039 33.1616H117.805" stroke="#232F58" stroke-width="0.5" stroke-miterlimit="10"/>
<path d="M92.4338 33.6114L96.8918 39.9839L108.411 18.8918" stroke="#232F58" stroke-width="0.5" stroke-miterlimit="10"/>
<path d="M88.0053 36.3032H70.2332" stroke="#232F58" stroke-width="0.5" stroke-miterlimit="10"/>
<path d="M106.885 27.4771V45.2492" stroke="#232F58" stroke-width="0.5" stroke-miterlimit="10"/>
<defs>
<linearGradient id="paint0_linear" x1="89.3722" y1="72.9829" x2="131.03" y2="72.9829" gradientUnits="userSpaceOnUse">
<stop stop-color="#E1F2FA"/>
<stop offset="1" stop-color="#80CEED"/>
</linearGradient>
<linearGradient id="paint1_linear" x1="89.3722" y1="40.4591" x2="131.03" y2="40.4591" gradientUnits="userSpaceOnUse">
<stop stop-color="#E1F2FA"/>
<stop offset="1" stop-color="#80CEED"/>
</linearGradient>
<linearGradient id="paint2_linear" x1="44.0371" y1="70.891" x2="83.1343" y2="70.891" gradientUnits="userSpaceOnUse">
<stop stop-color="#E1F2FA"/>
<stop offset="1" stop-color="#80CEED"/>
</linearGradient>
</defs>
</svg>
