<svg width="120" height="120" viewBox="0 0 120 120" fill="none" xmlns="http://www.w3.org/2000/svg">
<path d="M0 58.5082L58.9965 120L120 61.4918L61.0035 0L0 58.5082Z" fill="url(#paint0_linear)"/>
<path d="M77.4828 20.9109H24.7451V92.3036H77.4828V20.9109Z" stroke="#232F58" stroke-width="0.5" stroke-miterlimit="10"/>
<path d="M72.5179 76.4092H53.8472V85.7557H72.5179V76.4092Z" stroke="#232F58" stroke-width="0.5" stroke-miterlimit="10"/>
<path d="M48.3546 76.4092H29.6838V85.7557H48.3546V76.4092Z" stroke="#232F58" stroke-width="0.5" stroke-miterlimit="10"/>
<path d="M72.5179 63.7622H53.8472V73.1087H72.5179V63.7622Z" stroke="#232F58" stroke-width="0.5" stroke-miterlimit="10"/>
<path d="M48.3546 63.7622H29.6838V73.1087H48.3546V63.7622Z" stroke="#232F58" stroke-width="0.5" stroke-miterlimit="10"/>
<path d="M72.5179 51.1157H53.8472V60.4623H72.5179V51.1157Z" stroke="#232F58" stroke-width="0.5" stroke-miterlimit="10"/>
<path d="M48.3546 51.1157H29.6838V60.4623H48.3546V51.1157Z" stroke="#232F58" stroke-width="0.5" stroke-miterlimit="10"/>
<path d="M72.5179 38.4951H53.8472V47.8416H72.5179V38.4951Z" stroke="#232F58" stroke-width="0.5" stroke-miterlimit="10"/>
<path d="M48.3546 38.4951H29.6838V47.8416H48.3546V38.4951Z" stroke="#232F58" stroke-width="0.5" stroke-miterlimit="10"/>
<path d="M72.5179 25.8481H53.8472V35.1947H72.5179V25.8481Z" stroke="#232F58" stroke-width="0.5" stroke-miterlimit="10"/>
<path d="M48.3546 25.8481H29.6838V35.1947H48.3546V25.8481Z" stroke="#232F58" stroke-width="0.5" stroke-miterlimit="10"/>
<path d="M80.863 54.8643L92.7732 84.3297L119.499 73.531L107.588 44.0657L80.863 54.8643Z" fill="url(#paint1_linear)"/>
<path d="M103.97 64.8715V49.0564H92.9579V64.8715H88.0459L98.4508 75.2742L108.882 64.8715H103.97Z" stroke="#232F58" stroke-width="0.5" stroke-miterlimit="10"/>
<path d="M2.61426 100.462L36.1266 112.607L35.572 9.92749L2.61426 19.6436V100.462Z" stroke="#232F58" stroke-width="0.5" stroke-miterlimit="10"/>
<path d="M21.9189 76.9371L18.1424 62.1516L14.366 76.9371H12.9136L17.403 59.7225L13.1513 43.4321H14.6301L18.1424 57.2407L21.6548 43.4321H23.1072L18.8819 59.7225L23.3713 76.9371H21.9189Z" fill="#232F58"/>
<path d="M86.9365 81.8745H108.354" stroke="#232F58" stroke-width="0.5" stroke-miterlimit="10"/>
<path d="M86.9365 79.6831H108.354" stroke="#232F58" stroke-width="0.5" stroke-miterlimit="10"/>
<path d="M39.0847 111.102V99.0098H46.7432V99.9603H40.1146V104.422H46.6375V105.373H40.1146V110.178H46.7432V111.102H39.0847Z" fill="#232F58"/>
<path d="M55.0616 111.102L52.1567 107.248L49.2518 111.102H48.1162L51.5757 106.614L48.3011 102.337H49.4366L52.1567 105.954L54.8768 102.337H55.9859L52.7377 106.614L56.1972 111.102H55.0616Z" fill="#232F58"/>
<path d="M56.7517 106.72C56.7517 104.158 58.4419 102.125 61.0299 102.125C62.5616 102.125 63.433 102.733 64.1461 103.604L63.4859 104.185C62.8521 103.314 62.0598 102.97 61.0827 102.97C59.0228 102.97 57.7816 104.607 57.7816 106.72C57.7816 108.832 59.0228 110.469 61.0827 110.469C62.0334 110.469 62.8521 110.099 63.4859 109.228L64.1461 109.809C63.433 110.706 62.5616 111.314 61.0299 111.314C58.4419 111.34 56.7517 109.281 56.7517 106.72Z" fill="#232F58"/>
<path d="M65.7305 106.72C65.7305 104.185 67.5262 102.125 69.9558 102.125C72.6231 102.125 74.1019 104.238 74.1019 106.772V107.036H66.7604C66.8396 108.937 68.1336 110.522 70.1935 110.522C71.3026 110.522 72.3062 110.099 73.072 109.307L73.5474 109.914C72.6759 110.812 71.5667 111.34 70.1143 111.34C67.5527 111.34 65.7305 109.439 65.7305 106.72ZM69.9294 102.944C67.8696 102.944 66.8132 104.766 66.7604 106.297H73.1248C73.0984 104.792 72.1213 102.944 69.9294 102.944Z" fill="#232F58"/>
<path d="M77.4558 99.0098H76.5051V111.129H77.4558V99.0098Z" fill="#232F58"/>
<defs>
<linearGradient id="paint0_linear" x1="32.7837" y1="31.693" x2="82.3059" y2="83.3343" gradientUnits="userSpaceOnUse">
<stop stop-color="#E1F2FA"/>
<stop offset="1" stop-color="#80CEED"/>
</linearGradient>
<linearGradient id="paint1_linear" x1="95.3944" y1="52.4978" x2="103.414" y2="72.3258" gradientUnits="userSpaceOnUse">
<stop stop-color="#E1F2FA"/>
<stop offset="1" stop-color="#80CEED"/>
</linearGradient>
</defs>
</svg>
