<svg width="122" height="122" viewBox="0 0 122 122" fill="none" xmlns="http://www.w3.org/2000/svg">
<path d="M112.145 64.1138C112.145 88.7978 92.1069 108.835 67.3505 108.835C42.6265 108.835 22.5564 88.7978 22.5564 64.1138C22.5564 39.4298 42.5942 19.3921 67.3505 19.3921C92.1069 19.3921 112.145 39.3975 112.145 64.1138Z" fill="url(#paint0_linear)"/>
<path d="M83.9304 58.499L88.2934 57.8537V53.3686L83.9304 52.7233C83.6072 49.7548 82.8315 46.9153 81.668 44.3017L85.1262 41.559L82.8639 37.6547L78.7593 39.2681C77.0464 36.9126 74.9457 34.8153 72.5864 33.1051L74.2024 29.0073L70.2918 26.7486L67.577 30.1688C64.9591 29.0072 62.115 28.2329 59.1417 27.9102L58.4953 23.5542H54.003L53.3566 27.9102C50.3832 28.2006 47.5392 29.0072 44.9213 30.1688L42.2065 26.7486L38.2959 29.0073L39.9119 33.1051C37.5526 34.8153 35.4519 36.9126 33.7389 39.2681L29.6344 37.6547L27.3721 41.559L30.8302 44.3017C29.6667 46.9153 28.8911 49.7548 28.5679 52.7233L24.2048 53.3686V57.8537L28.5679 58.499C28.8588 61.4675 29.6667 64.307 30.8302 66.9529L27.3721 69.6956L29.6344 73.5998L33.7389 71.9865C35.4519 74.3419 37.5526 76.4393 39.9119 78.1494L38.2959 82.2474L42.2065 84.506L44.9213 81.0857C47.5392 82.2473 50.3832 83.0217 53.3566 83.3444L54.003 87.7004H58.4953L59.1417 83.3444L83.9304 58.499ZM59.1417 77.5363C58.2044 77.6654 57.2349 77.73 56.233 77.73C43.9841 77.73 34.0621 67.8241 34.0621 55.595C34.0621 43.3659 43.9841 33.4601 56.233 33.4601C68.4819 33.4601 78.4038 43.3659 78.4038 55.595C78.4038 56.5308 78.3392 57.4665 78.2422 58.4022L59.1417 77.5363ZM56.233 66.8884C49.9954 66.8884 44.9213 61.8225 44.9213 55.595C44.9213 49.3675 49.9954 44.3017 56.233 44.3017C62.4705 44.3017 67.5446 49.3675 67.5446 55.595C67.5446 61.8548 62.4705 66.8884 56.233 66.8884Z" stroke="#212E58" stroke-width="0.4251" stroke-miterlimit="10" stroke-linejoin="round"/>
<path d="M97.6663 81.4733V76.8592L94.2081 75.9558C93.8526 74.3424 93.2063 72.8259 92.3336 71.4384L94.1435 68.3409L90.8793 65.0819L87.809 66.9856C86.4516 66.1144 84.9326 65.5014 83.2843 65.1142L82.3794 61.6616H77.7901L76.8851 65.1142C75.2692 65.5014 73.7502 66.1144 72.3605 66.9856L69.2902 65.1787L66.0259 68.4377L67.8358 71.5352C66.9632 72.8904 66.3168 74.4069 65.9613 76.0525L62.5032 76.956V81.5701L65.9613 82.4736C66.3168 84.0869 66.9632 85.6035 67.8358 86.991L66.0259 90.0563L69.2902 93.3153L72.3605 91.5083C73.7179 92.3795 75.2369 93.0248 76.8851 93.3798L77.7901 96.8323H82.4117L83.3166 93.3798C84.9326 93.0248 86.4516 92.3795 87.8413 91.5083L90.9116 93.3153L94.1758 90.0563L92.366 86.991C93.2386 85.6358 93.885 84.1192 94.2405 82.4736L97.6663 81.4733Z" stroke="#212E58" stroke-width="0.4251" stroke-miterlimit="10" stroke-linejoin="round"/>
<path d="M80.1174 89.3143C85.7221 89.3143 90.2656 84.7781 90.2656 79.1825C90.2656 73.5869 85.7221 69.0508 80.1174 69.0508C74.5127 69.0508 69.9692 73.5869 69.9692 79.1825C69.9692 84.7781 74.5127 89.3143 80.1174 89.3143Z" stroke="#212E58" stroke-width="0.4251" stroke-miterlimit="10" stroke-linejoin="round"/>
<path d="M8.59521 58.0799C10.0496 30.4596 32.9314 8.51831 60.9843 8.51831" stroke="#212E58" stroke-width="0.4251" stroke-miterlimit="10" stroke-linejoin="round"/>
<path d="M57.6877 113.159C30.2489 111.449 8.53052 88.7011 8.53052 60.8872" stroke="#212E58" stroke-width="0.4251" stroke-miterlimit="10" stroke-linejoin="round"/>
<path d="M113.341 64.0493C111.693 91.5083 88.8754 113.256 60.9841 113.256" stroke="#212E58" stroke-width="0.4251" stroke-miterlimit="10" stroke-linejoin="round"/>
<path d="M63.9897 8.61475C91.5579 10.1635 113.438 32.9762 113.438 60.8869C113.438 61.0805 113.438 61.3062 113.438 61.4998" stroke="#212E58" stroke-width="0.4251" stroke-miterlimit="10" stroke-linejoin="round"/>
<path d="M3.06787 61.3713C3.06787 61.2099 3.06787 61.0486 3.06787 60.8873C3.06787 32.4603 23.6228 8.80876 50.7061 3.96875" stroke="#212E58" stroke-width="0.4251" stroke-miterlimit="10" stroke-linejoin="round"/>
<path d="M59.7235 118.676C31.9615 118.096 9.01497 97.9936 4.03784 71.5671" stroke="#212E58" stroke-width="0.4251" stroke-miterlimit="10" stroke-linejoin="round"/>
<path d="M118.899 60.8872C118.899 89.1528 98.5707 112.708 71.7136 117.709" stroke="#212E58" stroke-width="0.4251" stroke-miterlimit="10" stroke-linejoin="round"/>
<path d="M60.9841 3.06519C89.3602 3.06519 112.953 23.4255 117.93 50.3037" stroke="#212E58" stroke-width="0.4251" stroke-miterlimit="10" stroke-linejoin="round"/>
<path d="M53.6477 1L61.3396 8.67949L53.6477 16.3267" stroke="#212E58" stroke-width="0.4251" stroke-miterlimit="10" stroke-linejoin="round"/>
<path d="M1 68.5666L8.69193 60.9194L16.3515 68.5666" stroke="#212E58" stroke-width="0.4251" stroke-miterlimit="10" stroke-linejoin="round"/>
<path d="M121 53.7559L113.34 61.4031L105.648 53.7559" stroke="#212E58" stroke-width="0.4251" stroke-miterlimit="10" stroke-linejoin="round"/>
<path d="M68.1586 121L60.499 113.321L68.1586 105.641" stroke="#212E58" stroke-width="0.4251" stroke-miterlimit="10" stroke-linejoin="round"/>
<defs>
<linearGradient id="paint0_linear" x1="43.8821" y1="34.9763" x2="91.4661" y2="94.1916" gradientUnits="userSpaceOnUse">
<stop stop-color="#E2F2FA"/>
<stop offset="1" stop-color="#7FCEEE"/>
</linearGradient>
</defs>
</svg>
