<svg width="132" height="122" viewBox="0 0 132 122" fill="none" xmlns="http://www.w3.org/2000/svg">
<path d="M119.233 32.8252V86.2094C119.233 87.6923 118.037 88.9089 116.581 88.9089H38.0204L13.552 63.6617V10.2776C13.552 8.7947 14.7474 7.57788 16.2043 7.57788H94.7271L119.233 32.8252Z" fill="url(#paint0_linear)"/>
<path d="M112.098 30.7339H127.302C129.244 30.7339 130.813 32.3309 130.813 34.3081V104.574C130.813 106.552 129.244 108.149 127.302 108.149H30.9226C28.9801 108.149 27.4111 106.552 27.4111 104.574V34.3081C27.4111 32.3309 28.9801 30.7339 30.9226 30.7339H94.8765" stroke="#212E58" stroke-width="0.4251" stroke-miterlimit="10" stroke-linejoin="round"/>
<path d="M27.7476 93.7378H130.44" stroke="#212E58" stroke-width="0.4251" stroke-miterlimit="10" stroke-linejoin="round"/>
<path d="M68.2039 108.833V120.544" stroke="#212E58" stroke-width="0.4251" stroke-miterlimit="10" stroke-linejoin="round"/>
<path d="M89.9827 108.833V120.544" stroke="#212E58" stroke-width="0.4251" stroke-miterlimit="10" stroke-linejoin="round"/>
<path d="M57.3711 121H100.816" stroke="#212E58" stroke-width="0.4251" stroke-miterlimit="10" stroke-linejoin="round"/>
<path d="M20.5747 78.4526H4.51148C2.56896 78.4526 1 76.8556 1 74.8784V4.57417C1 2.59697 2.56896 1 4.51148 1H100.891C102.833 1 104.402 2.59697 104.402 4.57417V74.9546C104.402 76.9318 102.833 78.5287 100.891 78.5287H37.2356" stroke="#212E58" stroke-width="0.4251" stroke-miterlimit="10" stroke-linejoin="round"/>
<path d="M1.33618 64.042H20.3505" stroke="#212E58" stroke-width="0.4251" stroke-miterlimit="10" stroke-linejoin="round"/>
<path d="M86.6201 21.1523L96.0339 30.7341L86.6201 40.3159" stroke="#212E58" stroke-width="0.4251" stroke-miterlimit="10" stroke-linejoin="round"/>
<path d="M45.603 87.8822L36.1892 78.3384L45.603 68.7566" stroke="#212E58" stroke-width="0.4251" stroke-miterlimit="10" stroke-linejoin="round"/>
<path d="M1.22437 15.7148H103.805" stroke="#212E58" stroke-width="0.4251" stroke-miterlimit="10" stroke-linejoin="round"/>
<path d="M112.359 43.3955H131" stroke="#212E58" stroke-width="0.4251" stroke-miterlimit="10" stroke-linejoin="round"/>
<path d="M112.359 36.9697H124.052" stroke="#212E58" stroke-width="0.4251" stroke-miterlimit="10" stroke-linejoin="round"/>
<path d="M96.072 8.22437H35.9658" stroke="#212E58" stroke-width="0.4251" stroke-miterlimit="10" stroke-linejoin="round"/>
<path d="M29.6522 8.22437H27.9712" stroke="#212E58" stroke-width="0.4251" stroke-miterlimit="10" stroke-linejoin="round"/>
<path d="M20.9862 8.22437H19.3052" stroke="#212E58" stroke-width="0.4251" stroke-miterlimit="10" stroke-linejoin="round"/>
<path d="M12.3192 8.22437H10.6008" stroke="#212E58" stroke-width="0.4251" stroke-miterlimit="10" stroke-linejoin="round"/>
<path d="M77.6179 63.8139C77.6179 62.369 77.2816 61.1523 76.6092 60.1257C75.9368 59.1371 74.8908 58.2245 73.4713 57.464C72.0518 56.7036 69.8851 55.9051 67.0087 55.1066C64.1322 54.3081 61.9656 53.4717 60.5087 52.6732C59.0518 51.8367 58.0058 50.8861 57.3334 49.7834C56.661 48.6808 56.3248 47.388 56.3248 45.829C56.3248 43.3575 57.3334 41.3424 59.388 39.8214C61.4426 38.3005 64.0949 37.54 67.3822 37.54C69.5116 37.54 71.4541 37.9584 73.1351 38.7949C74.8535 39.6314 76.161 40.848 77.0949 42.3689C78.0288 43.8898 78.477 45.639 78.477 47.5782H77.2443C77.2443 45.0306 76.3104 42.9393 74.4799 41.3043C72.6495 39.6313 70.2587 38.8328 67.3449 38.8328C64.3937 38.8328 62.0403 39.4792 60.2098 40.848C58.4167 42.1788 57.4828 43.8519 57.4828 45.8671C57.4828 47.9203 58.2673 49.5553 59.8363 50.7721C61.4052 52.0268 64.0202 53.1295 67.6437 54.08C71.2673 55.0306 73.9196 56.1333 75.6006 57.4261C77.7299 59.023 78.8133 61.1904 78.8133 63.852C78.8133 65.563 78.3276 67.084 77.3937 68.4148C76.4598 69.7456 75.115 70.7341 73.3592 71.4566C71.6035 72.179 69.661 72.5211 67.4943 72.5211C65.0662 72.5211 62.8995 72.1028 60.9943 71.3043C59.0518 70.5058 57.6323 69.3272 56.661 67.8063C55.6897 66.2854 55.2041 64.4984 55.2041 62.4451H56.4369C56.4369 65.2208 57.4455 67.388 59.5001 68.9469C61.5547 70.5059 64.207 71.2665 67.4943 71.2665C70.4081 71.2665 72.8363 70.5819 74.7041 69.2131C76.6466 67.7682 77.6179 65.9812 77.6179 63.8139Z" fill="#212E58" stroke="#212E58" stroke-width="0.0814"/>
<path d="M67.3074 35.0305V74.4603" stroke="#212E58" stroke-width="0.4251" stroke-miterlimit="10" stroke-linejoin="round"/>
<defs>
<linearGradient id="paint0_linear" x1="18.6575" y1="11.2722" x2="111.788" y2="80.8805" gradientUnits="userSpaceOnUse">
<stop stop-color="#E2F2FA"/>
<stop offset="1" stop-color="#7FCEEE"/>
</linearGradient>
</defs>
</svg>
