<svg width="25" height="26" viewBox="0 0 25 26" fill="none" xmlns="http://www.w3.org/2000/svg">
<g clip-path="url(#clip0)">
<path d="M24.8756 13.4727C24.8756 20.3065 19.3344 25.8477 12.5006 25.8477C5.66566 25.8477 0.124512 20.3065 0.124512 13.4727C0.124512 6.63776 5.66566 1.09766 12.5006 1.09766C19.3344 1.09766 24.8756 6.63776 24.8756 13.4727ZM18.3641 16.0763C16.999 14.8091 17.1813 15.0133 18.8276 12.8211C19.8292 11.4867 20.2318 10.6721 20.1037 10.3232C19.9854 9.99036 19.2495 10.0789 19.2495 10.0789L16.7964 10.094C16.7964 10.094 16.6136 10.069 16.4792 10.1492C16.3495 10.2279 16.2636 10.4122 16.2636 10.4122C16.2636 10.4122 15.8771 11.4445 15.3604 12.3232C14.2698 14.1768 13.8318 14.2747 13.6537 14.1586C13.2391 13.8898 13.3427 13.0815 13.3427 12.507C13.3427 10.7107 13.6146 9.96172 12.8115 9.76797C12.5453 9.70338 12.3495 9.6612 11.6683 9.65391C10.7943 9.64557 10.0532 9.65755 9.63493 9.8612C9.35576 9.99818 9.14066 10.3023 9.27191 10.3195C9.43337 10.3409 9.80107 10.4195 9.99482 10.6836C10.2469 11.0253 10.2365 11.7935 10.2365 11.7935C10.2365 11.7935 10.3834 13.906 9.90003 14.169C9.57086 14.3497 9.11722 13.9815 8.14482 12.3003C7.64586 11.4398 7.26982 10.4872 7.26982 10.4872C7.26982 10.4872 7.19691 10.3081 7.06566 10.2128C6.90993 10.0971 6.68962 10.0576 6.68962 10.0576L4.36201 10.0669C4.36201 10.0669 4.01097 10.0654 3.88337 10.2174C3.7693 10.3523 3.87399 10.6091 3.87399 10.6091C3.87399 10.6091 5.69639 14.8299 7.81826 16.9789C9.71305 18.9497 11.862 18.7289 11.862 18.7289H12.8344C12.8344 18.7289 13.1292 18.7878 13.2792 18.6305C13.4172 18.4805 13.4125 18.294 13.4125 18.294C13.4125 18.294 13.3948 16.9857 14.0006 16.7924C14.5995 16.6049 15.3672 18.0576 16.1818 18.6138C16.7974 19.0367 17.2646 18.9435 17.2646 18.9435L19.4422 18.9143C19.4422 18.9143 20.5808 18.8435 20.0407 17.9466C19.9381 17.8742 19.6683 17.2857 18.3641 16.0763Z" fill="white"/>
</g>
<defs>
<clipPath id="clip0">
<rect width="25" height="25" fill="white" transform="translate(0 0.972656)"/>
</clipPath>
</defs>
</svg>
