<svg width="25" height="26" viewBox="0 0 25 26" fill="none" xmlns="http://www.w3.org/2000/svg">
<g clip-path="url(#clip0)">
<path d="M12.5001 0.979492C19.4001 0.979492 24.9933 6.57324 24.9933 13.4727C24.9933 20.3722 19.3995 25.966 12.5001 25.966C5.60059 25.966 0.00683594 20.3722 0.00683594 13.4727C0.00683594 6.57324 5.60006 0.979492 12.5001 0.979492ZM18.6537 10.3962C18.5235 9.6998 17.9438 9.18002 17.2777 9.11596C15.687 9.01387 14.0907 8.93106 12.4975 8.93002C10.9042 8.92898 9.31361 9.01022 7.72298 9.11074C7.05423 9.17533 6.47455 9.69252 6.34486 10.3915C6.19694 11.3982 6.12299 12.4149 6.12299 13.4311C6.12299 14.4472 6.19694 15.4639 6.34486 16.4706C6.47455 17.1696 7.05423 17.7488 7.72298 17.8128C9.31413 17.9133 10.9037 18.0159 12.4975 18.0159C14.0902 18.0159 15.6881 17.9264 17.2777 17.8232C17.9438 17.7587 18.5235 17.1623 18.6537 16.466C18.8027 15.4607 18.8771 14.4456 18.8771 13.4305C18.8771 12.416 18.8027 11.4014 18.6537 10.3962ZM11.0542 15.2618V11.5561L14.5058 13.4092L11.0542 15.2618Z" fill="white"/>
</g>
<defs>
<clipPath id="clip0">
<rect width="25" height="25" fill="white" transform="translate(0 0.972656)"/>
</clipPath>
</defs>
</svg>
