<svg width="50" height="50" viewBox="0 0 50 50" fill="none" xmlns="http://www.w3.org/2000/svg">
<path d="M42.5774 0H30.8574C26.8184 0 23.5324 3.286 23.5324 7.32501V13.2827C23.5324 16.8201 26.0531 19.7799 29.3924 20.4605V23.5377C29.3924 24.0926 29.7059 24.5998 30.2023 24.8481C30.6979 25.0959 31.2919 25.0431 31.7364 24.7097L37.2058 20.6077H42.5774C46.6273 20.6077 50.0001 17.3317 50.0001 13.2827V7.32501C50.0001 3.27516 46.6266 0 42.5774 0ZM45.5709 39.3417L35.2118 31.9126C34.7292 31.5665 34.0853 31.546 33.5818 31.8607L27.7453 35.5078C27.4314 35.568 26.0669 35.3126 23.4286 33.4027C21.2104 31.7971 18.8333 29.5489 17.0699 27.389C14.457 24.1885 14.2623 22.5749 14.4057 22.2131L18.0701 16.349C18.3849 15.8454 18.3644 15.2015 18.0183 14.7189L10.589 4.35984C10.3382 4.01029 9.9466 3.78859 9.51794 3.75353C9.08967 3.71847 8.66677 3.87356 8.36254 4.17769L3.01734 9.52251C-0.0105264 12.5502 -0.85339 17.1604 0.919945 20.9947C3.2912 26.1216 6.36965 30.8591 10.0699 35.0757C15.3594 41.1035 21.7532 45.8373 29.074 49.1457C32.8221 50.8396 37.3568 49.9645 40.3564 46.9648L45.7531 41.5682C46.0572 41.264 46.2124 40.8416 46.1773 40.4128C46.1422 39.9841 45.9205 39.5924 45.5709 39.3417Z" fill="url(#paint0_linear)"/>
<defs>
<linearGradient id="paint0_linear" x1="25.0005" y1="0" x2="25.0005" y2="50" gradientUnits="userSpaceOnUse">
<stop stop-color="#E2F2FA"/>
<stop offset="1" stop-color="#7FCEEE"/>
</linearGradient>
</defs>
</svg>
