<svg width="22" height="22" viewBox="0 0 22 22" fill="none" xmlns="http://www.w3.org/2000/svg">
<path d="M11 14.7994C13.0987 14.7994 14.8 13.0981 14.8 10.9994C14.8 8.90072 13.0987 7.1994 11 7.1994C8.90133 7.1994 7.20001 8.90072 7.20001 10.9994C7.20001 13.0981 8.90133 14.7994 11 14.7994Z" stroke="#206999" stroke-width="2" stroke-linecap="round" stroke-linejoin="round"/>
<path d="M14.8 7.19941V11.9494C14.8 12.7053 15.1003 13.4302 15.6348 13.9647C16.1692 14.4991 16.8941 14.7994 17.65 14.7994C18.4059 14.7994 19.1308 14.4991 19.6653 13.9647C20.1997 13.4302 20.5 12.7053 20.5 11.9494V10.9994C20.4999 8.85529 19.7744 6.77426 18.4416 5.09472C17.1088 3.41517 15.247 2.23587 13.159 1.74859C11.071 1.26131 8.87955 1.4947 6.94099 2.41081C5.00243 3.32692 3.43079 4.87187 2.4816 6.79445C1.53242 8.71703 1.26153 10.9042 1.71297 13.0002C2.16441 15.0963 3.31164 16.978 4.96811 18.3394C6.62458 19.7007 8.69287 20.4617 10.8367 20.4986C12.9805 20.5355 15.0737 19.846 16.776 18.5424" stroke="#206999" stroke-width="2" stroke-linecap="round" stroke-linejoin="round"/>
</svg>
