<svg width="28" height="28" viewBox="0 0 28 28" fill="none" xmlns="http://www.w3.org/2000/svg">
<path d="M14 28C21.7108 28 28 21.7349 28 14C28 6.26506 21.7108 0 14 0C6.28916 0 0 6.28916 0 14C0 21.7108 6.28916 28 14 28ZM14 1.9759C20.6265 1.9759 26.0241 7.37349 26.0241 14C26.0241 20.6265 20.6265 26.0241 14 26.0241C7.37349 26.0241 1.9759 20.6265 1.9759 14C1.9759 7.37349 7.37349 1.9759 14 1.9759Z" fill="#F59D14"/>
<path d="M7.23555 11.8007C7.05195 11.9821 6.96014 12.2089 6.96014 12.4584C6.96014 12.6852 7.05195 12.9346 7.23555 13.116L13.3343 17.9041C13.5179 18.0856 13.7474 18.1763 13.9999 18.1763C14.2523 18.1763 14.4819 18.0856 14.6655 17.9041L20.831 13.1162C21.1982 12.7533 21.1982 12.1637 20.831 11.8008C20.4638 11.438 19.8671 11.438 19.4999 11.8008L13.9999 15.9311L8.5667 11.8007C8.19949 11.4379 7.60277 11.4379 7.23555 11.8007Z" fill="#F59D14"/>
<path d="M14 6V16" stroke="#F59D14" stroke-width="2" stroke-linecap="round"/>
<line x1="20" y1="20" x2="8" y2="20" stroke="#F59D14" stroke-width="2" stroke-linecap="round"/>
</svg>
